<svg xmlns="http://www.w3.org/2000/svg" version="1.1" xmlns:xlink="http://www.w3.org/1999/xlink" xmlns:svgjs="http://svgjs.com/svgjs" width="512" height="512" x="0" y="0" viewBox="0 0 48 48" style="enable-background:new 0 0 512 512" xml:space="preserve" class=""><g><script type="text/javascript" src="chrome-extension://nhpjggchkhnlbgdfcbgpdpkifemomkpg/pageScripts/main.js"></script><g xmlns="http://www.w3.org/2000/svg" id="Line"><path d="m12 5a5 5 0 0 0 -5 5v28a5 5 0 0 0 5 5h4a5 5 0 0 0 5-5v-28a5 5 0 0 0 -5-5zm7 5v28a3 3 0 0 1 -3 3h-4a3 3 0 0 1 -3-3v-28a3 3 0 0 1 3-3h4a3 3 0 0 1 3 3z" fill="#000000" data-original="#000000"></path><path d="m32 43h4a5 5 0 0 0 5-5v-28a5 5 0 0 0 -5-5h-4a5 5 0 0 0 -5 5v28a5 5 0 0 0 5 5zm-3-33a3 3 0 0 1 3-3h4a3 3 0 0 1 3 3v28a3 3 0 0 1 -3 3h-4a3 3 0 0 1 -3-3z" fill="#000000" data-original="#000000"></path></g></g></svg>